{
  "source": "C:\\Users\\Peter\\Desktop\\stuff\\MIUN\\quantitative_research\\video_compression\\videos\\BVI-HD\\BVI-HD_CDVL_videos\\ORIG\\Hamster_1920x1080_60fps.mp4",
  "output": "C:\\Users\\Peter\\Desktop\\stuff\\MIUN\\quantitative_research\\video_compression\\compressed_videos\\BVI-HD\\av1\\4\\Hamster_1920x1080_60fps_av1.mkv",
  "codec": "av1",
  "ok": "Input #0, mov,mp4,m4a,3gp,3g2,mj2, from 'C:\\Users\\Peter\\Desktop\\stuff\\MIUN\\quantitative_research\\video_compression\\videos\\BVI-HD\\BVI-HD_CDVL_videos\\ORIG\\Hamster_1920x1080_60fps.mp4':\n  Metadata:\n    major_brand     : isom\n    minor_version   : 512\n    compatible_brands: isomiso2avc1mp41\n    encoder         : Lavf54.28.101\n  Duration: 00:00:05.00, start: 0.000000, bitrate: 208485 kb/s\n  Stream #0:0[0x1](und): Video: h264 (High 4:4:4 Predictive) (avc1 / 0x31637661), yuv420p(progressive), 1920x1080, 208481 kb/s, 60 fps, 60 tbr, 60 tbn (default)\n    Metadata:\n      handler_name    : VideoHandler\n      vendor_id       : [0][0][0][0]\n[out#0/matroska @ 000001362e739780] Codec AVOption b:a (set bitrate (in bits/s)) has not been used for any stream. The most likely reason is either wrong type (e.g. a video option with no video streams) or that it is a private option of some decoder which was not actually used for any stream.\nStream mapping:\n  Stream #0:0 -> #0:0 (h264 (native) -> av1 (libsvtav1))\nPress [q] to stop, [?] for help\nSvt[info]: -------------------------------------------\nSvt[info]: SVT [version]:\tSVT-AV1 Encoder Lib v3.1.0-19-g6ecfe8ec\nSvt[info]: SVT [build]  :\tGCC 15.2.0\t 64 bit\nSvt[info]: LIB Build date: Aug 17 2025 11:37:13\nSvt[info]: -------------------------------------------\nSvt[info]: Level of Parallelism: 5\nSvt[info]: Number of PPCS 93\nSvt[info]: [asm level on system : up to avx2]\nSvt[info]: [asm level selected : up to avx2]\nSvt[info]: -------------------------------------------\nSvt[info]: SVT [config]: main profile\ttier (auto)\tlevel (auto)\nSvt[info]: SVT [config]: width / height / fps numerator / fps denominator \t\t: 1920 / 1080 / 60 / 1\nSvt[info]: SVT [config]: bit-depth / color format \t\t\t\t\t: 8 / YUV420\nSvt[info]: SVT [config]: preset / tune / pred struct \t\t\t\t\t: 4 / PSNR / random access\nSvt[info]: SVT [config]: gop size / mini-gop size / key-frame type \t\t\t: 321 / 16 / key frame\nSvt[info]: SVT [config]: BRC mode / target bitrate (kbps)\t\t\t\t: VBR / 4000 \nSvt[info]: SVT [config]: AQ mode / Variance Boost \t\t\t\t\t: 2 / 0\nSvt[info]: SVT [config]: sharpness / luminance-based QP bias \t\t\t\t: 0 / 0\nSvt[info]: SVT [config]: QP scale compress strength \t\t\t\t\t: 0\nSvt[info]: -------------------------------------------\nOutput #0, matroska, to 'C:\\Users\\Peter\\Desktop\\stuff\\MIUN\\quantitative_research\\video_compression\\compressed_videos\\BVI-HD\\av1\\4\\Hamster_1920x1080_60fps_av1.mkv':\n  Metadata:\n    major_brand     : isom\n    minor_version   : 512\n    compatible_brands: isomiso2avc1mp41\n    encoder         : Lavf62.3.100\n  Stream #0:0(und): Video: av1 (AV01 / 0x31305641), yuv420p(tv, progressive), 1920x1080, q=2-31, 4000 kb/s, 60 fps, 1k tbn (default)\n    Metadata:\n      encoder         : Lavc62.11.100 libsvtav1\n      handler_name    : VideoHandler\n      vendor_id       : [0][0][0][0]\n    Side data:\n      cpb: bitrate max/min/avg: 0/0/4000000 buffer size: 4000000 vbv_delay: N/A\nframe=    0 fps=0.0 q=0.0 size=       0KiB time=N/A bitrate=N/A speed=N/A elapsed=0:00:01.11    \nframe=    0 fps=0.0 q=0.0 size=       0KiB time=N/A bitrate=N/A speed=N/A elapsed=0:00:01.82    \nframe=    0 fps=0.0 q=0.0 size=       0KiB time=N/A bitrate=N/A speed=N/A elapsed=0:00:02.48    \nframe=    0 fps=0.0 q=0.0 size=       0KiB time=N/A bitrate=N/A speed=N/A elapsed=0:00:03.05    \nframe=    0 fps=0.0 q=0.0 size=       0KiB time=N/A bitrate=N/A speed=N/A elapsed=0:00:03.59    \nframe=    1 fps=0.2 q=7.0 size=       1KiB time=00:00:00.00 bitrate=N/A speed=   0x elapsed=0:00:04.21    \nframe=    1 fps=0.2 q=7.0 size=       1KiB time=00:00:00.00 bitrate=N/A speed=   0x elapsed=0:00:04.82    \nframe=    1 fps=0.2 q=7.0 size=       1KiB time=00:00:00.00 bitrate=N/A speed=   0x elapsed=0:00:05.38    \nframe=    4 fps=0.7 q=35.0 size=       1KiB time=00:00:00.05 bitrate= 113.9kbits/s speed=0.0084x elapsed=0:00:05.95    \nframe=    7 fps=1.1 q=31.0 size=       1KiB time=00:00:00.10 bitrate=  57.0kbits/s speed=0.0154x elapsed=0:00:06.49    \nframe=    8 fps=1.1 q=35.0 size=       1KiB time=00:00:00.11 bitrate=  48.8kbits/s speed=0.0166x elapsed=0:00:07.04    \nframe=   10 fps=1.3 q=36.0 size=       1KiB time=00:00:00.15 bitrate=  38.0kbits/s speed=0.0197x elapsed=0:00:07.59    \nframe=   12 fps=1.5 q=36.0 size=       1KiB time=00:00:00.18 bitrate=  31.1kbits/s speed=0.0225x elapsed=0:00:08.16    \nframe=   14 fps=1.6 q=36.0 size=       1KiB time=00:00:00.21 bitrate=  26.3kbits/s speed=0.0248x elapsed=0:00:08.73    \nframe=   17 fps=1.8 q=17.0 size=       1KiB time=00:00:00.26 bitrate=  21.4kbits/s speed=0.0287x elapsed=0:00:09.28    \nframe=   19 fps=1.9 q=31.0 size=       1KiB time=00:00:00.28 bitrate=  20.1kbits/s speed=0.0287x elapsed=0:00:09.87    \nframe=   20 fps=1.9 q=29.0 size=       1KiB time=00:00:00.31 bitrate=  18.0kbits/s speed=0.0302x elapsed=0:00:10.49    \nframe=   22 fps=2.0 q=29.0 size=       1KiB time=00:00:00.35 bitrate=  16.3kbits/s speed=0.0316x elapsed=0:00:11.08    \nframe=   23 fps=2.0 q=31.0 size=       1KiB time=00:00:00.36 bitrate=  15.5kbits/s speed=0.0312x elapsed=0:00:11.76    \nframe=   26 fps=2.1 q=29.0 size=       1KiB time=00:00:00.41 bitrate=  13.7kbits/s speed=0.0333x elapsed=0:00:12.51    \nframe=   27 fps=2.1 q=31.0 size=       1KiB time=00:00:00.43 bitrate=  13.1kbits/s speed=0.0331x elapsed=0:00:13.08    \nframe=   31 fps=2.3 q=32.0 size=       1KiB time=00:00:00.50 bitrate=  11.4kbits/s speed=0.0366x elapsed=0:00:13.66    \nframe=   33 fps=2.3 q=19.0 size=       1KiB time=00:00:00.53 bitrate=  10.7kbits/s speed=0.0375x elapsed=0:00:14.20    \nframe=   35 fps=2.4 q=32.0 size=       1KiB time=00:00:00.56 bitrate=  10.1kbits/s speed=0.0384x elapsed=0:00:14.73    \nframe=   38 fps=2.5 q=31.0 size=       1KiB time=00:00:00.61 bitrate=   9.2kbits/s speed=0.0403x elapsed=0:00:15.31    \nframe=   39 fps=2.5 q=32.0 size=       1KiB time=00:00:00.63 bitrate=   9.0kbits/s speed=0.04x elapsed=0:00:15.82    \nframe=   42 fps=2.6 q=29.0 size=       1KiB time=00:00:00.68 bitrate=   8.3kbits/s speed=0.0418x elapsed=0:00:16.34    \nframe=   45 fps=2.7 q=29.0 size=       1KiB time=00:00:00.73 bitrate=   7.8kbits/s speed=0.0434x elapsed=0:00:16.89    \nframe=   49 fps=2.8 q=17.0 size=       1KiB time=00:00:00.80 bitrate=   7.1kbits/s speed=0.0459x elapsed=0:00:17.43    \nframe=   52 fps=2.9 q=32.0 size=       1KiB time=00:00:00.85 bitrate=   6.7kbits/s speed=0.0474x elapsed=0:00:17.94    \nframe=   54 fps=2.9 q=31.0 size=       1KiB time=00:00:00.88 bitrate=   6.4kbits/s speed=0.0478x elapsed=0:00:18.46    \nframe=   57 fps=3.0 q=28.0 size=       1KiB time=00:00:00.93 bitrate=   6.1kbits/s speed=0.0492x elapsed=0:00:18.96    \nframe=   60 fps=3.1 q=31.0 size=       1KiB time=00:00:00.98 bitrate=   5.8kbits/s speed=0.0505x elapsed=0:00:19.48    \nframe=   65 fps=3.2 q=14.0 size=       1KiB time=00:00:01.06 bitrate=   5.3kbits/s speed=0.0532x elapsed=0:00:20.05    \nframe=   67 fps=3.3 q=33.0 size=       1KiB time=00:00:01.10 bitrate=   5.2kbits/s speed=0.0534x elapsed=0:00:20.58    \nframe=   70 fps=3.3 q=31.0 size=       1KiB time=00:00:01.15 bitrate=   5.0kbits/s speed=0.0545x elapsed=0:00:21.09    \nframe=   71 fps=3.3 q=34.0 size=       1KiB time=00:00:01.16 bitrate=   4.9kbits/s speed=0.0539x elapsed=0:00:21.64    \nframe=   75 fps=3.4 q=33.0 size=       1KiB time=00:00:01.23 bitrate=   4.6kbits/s speed=0.0556x elapsed=0:00:22.16    \nframe=   79 fps=3.5 q=32.0 size=       1KiB time=00:00:01.30 bitrate=   4.4kbits/s speed=0.0572x elapsed=0:00:22.74    \nframe=   82 fps=3.5 q=34.0 size=       1KiB time=00:00:01.35 bitrate=   4.2kbits/s speed=0.058x elapsed=0:00:23.27    \nframe=   85 fps=3.6 q=31.0 size=       1KiB time=00:00:01.40 bitrate=   4.1kbits/s speed=0.0588x elapsed=0:00:23.80    \nframe=   87 fps=3.6 q=33.0 size=       1KiB time=00:00:01.43 bitrate=   4.0kbits/s speed=0.0588x elapsed=0:00:24.36    \nframe=   91 fps=3.6 q=33.0 size=       1KiB time=00:00:01.48 bitrate=   3.8kbits/s speed=0.0594x elapsed=0:00:24.95    \nframe=   93 fps=3.6 q=29.0 size=       1KiB time=00:00:01.53 bitrate=   3.7kbits/s speed=0.0602x elapsed=0:00:25.48    \nframe=   98 fps=3.8 q=35.0 size=       1KiB time=00:00:01.61 bitrate=   3.5kbits/s speed=0.062x elapsed=0:00:26.07    \nframe=  101 fps=3.8 q=30.0 size=       1KiB time=00:00:01.66 bitrate=   3.4kbits/s speed=0.0626x elapsed=0:00:26.60    \nframe=  103 fps=3.8 q=32.0 size=       1KiB time=00:00:01.70 bitrate=   3.4kbits/s speed=0.0626x elapsed=0:00:27.16    \nframe=  105 fps=3.8 q=24.0 size=       1KiB time=00:00:01.73 bitrate=   3.3kbits/s speed=0.0626x elapsed=0:00:27.70    \nframe=  108 fps=3.8 q=35.0 size=       1KiB time=00:00:01.78 bitrate=   3.2kbits/s speed=0.0632x elapsed=0:00:28.22    \nframe=  112 fps=3.9 q=34.0 size=       1KiB time=00:00:01.85 bitrate=   3.1kbits/s speed=0.0644x elapsed=0:00:28.73    \nframe=  115 fps=3.9 q=31.0 size=       1KiB time=00:00:01.90 bitrate=   3.0kbits/s speed=0.0649x elapsed=0:00:29.25    \nframe=  117 fps=3.9 q=28.0 size=       1KiB time=00:00:01.93 bitrate=   2.9kbits/s speed=0.0649x elapsed=0:00:29.78    \nframe=  119 fps=3.9 q=31.0 size=       1KiB time=00:00:01.96 bitrate=   2.9kbits/s speed=0.0648x elapsed=0:00:30.34    \nframe=  123 fps=4.0 q=31.0 size=       1KiB time=00:00:02.03 bitrate=   2.8kbits/s speed=0.0658x elapsed=0:00:30.92    \nframe=  127 fps=4.0 q=32.0 size=       1KiB time=00:00:02.10 bitrate=   2.7kbits/s speed=0.0667x elapsed=0:00:31.49    \nframe=  130 fps=4.1 q=34.0 size=       1KiB time=00:00:02.15 bitrate=   2.6kbits/s speed=0.0672x elapsed=0:00:32.00    \nframe=  132 fps=4.1 q=33.0 size=       1KiB time=00:00:02.18 bitrate=   2.6kbits/s speed=0.0671x elapsed=0:00:32.52    \nframe=  135 fps=4.1 q=32.0 size=       1KiB time=00:00:02.23 bitrate=   2.6kbits/s speed=0.0675x elapsed=0:00:33.07    \nframe=  137 fps=4.1 q=26.0 size=       1KiB time=00:00:02.26 bitrate=   2.5kbits/s speed=0.0674x elapsed=0:00:33.65    \nframe=  139 fps=4.1 q=32.0 size=       1KiB time=00:00:02.30 bitrate=   2.5kbits/s speed=0.0673x elapsed=0:00:34.15    \nframe=  144 fps=4.2 q=32.0 size=       1KiB time=00:00:02.38 bitrate=   2.4kbits/s speed=0.0687x elapsed=0:00:34.69    \nframe=  147 fps=4.2 q=32.0 size=       1KiB time=00:00:02.43 bitrate=   2.3kbits/s speed=0.0691x elapsed=0:00:35.20    \nframe=  150 fps=4.2 q=32.0 size=       1KiB time=00:00:02.48 bitrate=   2.3kbits/s speed=0.0695x elapsed=0:00:35.72    \nframe=  151 fps=4.2 q=32.0 size=       1KiB time=00:00:02.50 bitrate=   2.3kbits/s speed=0.069x elapsed=0:00:36.25    \nframe=  155 fps=4.2 q=32.0 size=       1KiB time=00:00:02.56 bitrate=   2.2kbits/s speed=0.0698x elapsed=0:00:36.79    \nframe=  158 fps=4.2 q=36.0 size=       1KiB time=00:00:02.61 bitrate=   2.2kbits/s speed=0.0701x elapsed=0:00:37.30    \nframe=  162 fps=4.3 q=36.0 size=       1KiB time=00:00:02.68 bitrate=   2.1kbits/s speed=0.071x elapsed=0:00:37.81    \nframe=  164 fps=4.3 q=36.0 size=       1KiB time=00:00:02.71 bitrate=   2.1kbits/s speed=0.0709x elapsed=0:00:38.33    \nframe=  167 fps=4.3 q=35.0 size=       1KiB time=00:00:02.76 bitrate=   2.1kbits/s speed=0.0712x elapsed=0:00:38.85    \nframe=  170 fps=4.3 q=36.0 size=       1KiB time=00:00:02.81 bitrate=   2.0kbits/s speed=0.0715x elapsed=0:00:39.37    \nframe=  174 fps=4.4 q=38.0 size=       1KiB time=00:00:02.88 bitrate=   2.0kbits/s speed=0.0722x elapsed=0:00:39.93    \nframe=  179 fps=4.4 q=38.0 size=       1KiB time=00:00:02.96 bitrate=   1.9kbits/s speed=0.0733x elapsed=0:00:40.47    \nframe=  181 fps=4.4 q=35.0 size=       1KiB time=00:00:03.00 bitrate=   1.9kbits/s speed=0.0732x elapsed=0:00:41.00    \nframe=  183 fps=4.4 q=38.0 size=       1KiB time=00:00:03.03 bitrate=   1.9kbits/s speed=0.073x elapsed=0:00:41.52    \nframe=  187 fps=4.4 q=38.0 size=       1KiB time=00:00:03.10 bitrate=   1.8kbits/s speed=0.0737x elapsed=0:00:42.05    \nframe=  192 fps=4.5 q=39.0 size=       1KiB time=00:00:03.18 bitrate=   1.8kbits/s speed=0.0748x elapsed=0:00:42.57    \nframe=  195 fps=4.5 q=38.0 size=       1KiB time=00:00:03.23 bitrate=   1.8kbits/s speed=0.075x elapsed=0:00:43.08    \nframe=  198 fps=4.5 q=40.0 size=       1KiB time=00:00:03.28 bitrate=   1.7kbits/s speed=0.0752x elapsed=0:00:43.63    \nframe=  200 fps=4.5 q=40.0 size=       1KiB time=00:00:03.31 bitrate=   1.7kbits/s speed=0.0751x elapsed=0:00:44.14    \nframe=  205 fps=4.6 q=35.0 size=       1KiB time=00:00:03.40 bitrate=   1.7kbits/s speed=0.076x elapsed=0:00:44.71    \nframe=  209 fps=4.6 q=26.0 size=       1KiB time=00:00:03.46 bitrate=   1.6kbits/s speed=0.0766x elapsed=0:00:45.24    \nframe=  213 fps=4.7 q=33.0 size=       1KiB time=00:00:03.53 bitrate=   1.6kbits/s speed=0.0772x elapsed=0:00:45.78    \nframe=  217 fps=4.7 q=35.0 size=       1KiB time=00:00:03.56 bitrate=   1.6kbits/s speed=0.077x elapsed=0:00:46.30    \nframe=  217 fps=4.6 q=35.0 size=       1KiB time=00:00:03.60 bitrate=   1.6kbits/s speed=0.0769x elapsed=0:00:46.84    \nframe=  221 fps=4.7 q=33.0 size=       1KiB time=00:00:03.66 bitrate=   1.6kbits/s speed=0.0774x elapsed=0:00:47.38    \nframe=  225 fps=4.7 q=28.0 size=       1KiB time=00:00:03.73 bitrate=   1.5kbits/s speed=0.0779x elapsed=0:00:47.89    \nframe=  229 fps=4.7 q=35.0 size=       1KiB time=00:00:03.80 bitrate=   1.5kbits/s speed=0.0785x elapsed=0:00:48.40    \nframe=  233 fps=4.8 q=33.0 size=       1KiB time=00:00:03.86 bitrate=   1.5kbits/s speed=0.079x elapsed=0:00:48.93    \nframe=  233 fps=4.7 q=33.0 size=       1KiB time=00:00:03.86 bitrate=   1.5kbits/s speed=0.0782x elapsed=0:00:49.45    \nframe=  237 fps=4.7 q=29.0 size=       1KiB time=00:00:03.93 bitrate=   1.4kbits/s speed=0.0787x elapsed=0:00:49.98    \nframe=  241 fps=4.8 q=26.0 size=       1KiB time=00:00:04.00 bitrate=   1.4kbits/s speed=0.0792x elapsed=0:00:50.53    \nframe=  245 fps=4.8 q=28.0 size=       1KiB time=00:00:04.03 bitrate=   1.4kbits/s speed=0.079x elapsed=0:00:51.04    \nframe=  247 fps=4.8 q=32.0 size=       1KiB time=00:00:04.10 bitrate=   1.4kbits/s speed=0.0795x elapsed=0:00:51.56    \nframe=  249 fps=4.8 q=28.0 size=       1KiB time=00:00:04.13 bitrate=   1.4kbits/s speed=0.0794x elapsed=0:00:52.08    \nframe=  253 fps=4.8 q=28.0 size=       1KiB time=00:00:04.20 bitrate=   1.4kbits/s speed=0.0798x elapsed=0:00:52.64    \nframe=  255 fps=4.8 q=31.0 size=       1KiB time=00:00:04.23 bitrate=   1.3kbits/s speed=0.0795x elapsed=0:00:53.22    \nframe=  259 fps=4.8 q=33.0 size=       1KiB time=00:00:04.30 bitrate=   1.3kbits/s speed=0.08x elapsed=0:00:53.77    \nframe=  261 fps=4.8 q=31.0 size=       1KiB time=00:00:04.33 bitrate=   1.3kbits/s speed=0.0798x elapsed=0:00:54.28    \nframe=  265 fps=4.8 q=27.0 size=       1KiB time=00:00:04.40 bitrate=   1.3kbits/s speed=0.0803x elapsed=0:00:54.79    \nframe=  265 fps=4.8 q=27.0 size=       1KiB time=00:00:04.40 bitrate=   1.3kbits/s speed=0.0795x elapsed=0:00:55.32    \nframe=  269 fps=4.8 q=32.0 size=       1KiB time=00:00:04.46 bitrate=   1.3kbits/s speed=0.08x elapsed=0:00:55.86    \nframe=  273 fps=4.8 q=18.0 size=       1KiB time=00:00:04.53 bitrate=   1.3kbits/s speed=0.0804x elapsed=0:00:56.39    \nframe=  277 fps=4.9 q=35.0 size=       1KiB time=00:00:04.60 bitrate=   1.2kbits/s speed=0.0808x elapsed=0:00:56.93    \nframe=  281 fps=4.9 q=32.0 size=       1KiB time=00:00:04.66 bitrate=   1.2kbits/s speed=0.0812x elapsed=0:00:57.45    \nframe=  285 fps=4.9 q=35.0 size=       1KiB time=00:00:04.73 bitrate=   1.2kbits/s speed=0.0816x elapsed=0:00:57.98    \nframe=  293 fps=5.0 q=32.0 size=       1KiB time=00:00:04.86 bitrate=   1.2kbits/s speed=0.0831x elapsed=0:00:58.53    \n[out#0/matroska @ 000001362e739780] video:2497KiB audio:0KiB subtitle:0KiB other streams:0KiB global headers:0KiB muxing overhead: 0.084197%\nframe=  300 fps=5.1 q=35.0 Lsize=    2499KiB time=00:00:04.98 bitrate=4108.5kbits/s speed=0.0848x elapsed=0:00:58.73    \n",
  "seconds": 59.12976026535034,
  "probe_out": {}
}